<svg width="60" height="60" viewBox="0 0 60 60" fill="none" xmlns="http://www.w3.org/2000/svg">
<rect width="60" height="60" rx="30" fill="white"/>
<path d="M35.8881 34.1122C37.7552 32.1589 38.9445 29.3997 38.9445 26.7657C38.9445 21.9788 35.038 18.0979 30.2151 18.0979C25.3938 18.0979 21.4862 21.9776 21.4862 26.7657C21.4862 27.9497 21.7367 29.1543 22.1715 30.3042C23.244 32.7035 25.3497 34.567 28.0163 35.2439C28.5448 34.5959 29.3416 34.2074 30.2153 34.2074C31.7822 34.2074 33.0579 35.473 33.0579 37.0292C33.0579 38.5857 31.7822 39.8502 30.2153 39.8502C29.0995 39.8502 28.1128 39.2041 27.6499 38.2393C25.3577 37.7384 23.3474 36.596 21.7852 35.028C18.3458 36.4871 16.115 38.8104 16.115 41.4333C16.115 45.8521 44.3164 45.8521 44.3164 41.4333C44.3164 38.1599 40.8494 35.3507 35.8881 34.1122Z" fill="#373737"/>
<path d="M18.6748 26.7641C18.6738 32.293 22.6338 36.8983 27.8697 37.9782C28.2469 38.9012 29.1541 39.5506 30.2145 39.5506C31.6102 39.5506 32.7498 38.4257 32.7498 37.0289C32.7498 35.6323 31.6105 34.5071 30.2157 34.5071C29.3559 34.5071 28.6008 34.9337 28.1438 35.583C24.0991 34.6485 21.0822 31.0484 21.0822 26.7642C21.0822 21.7717 25.1762 17.7001 30.2155 17.7001C35.2576 17.7001 39.3505 21.7718 39.3505 26.7642C39.3505 27.1508 39.6639 27.4642 40.0505 27.4642H41.0567C41.4433 27.4642 41.7567 27.1508 41.7567 26.7642C41.7567 20.4383 36.5754 15.3 30.2155 15.3C23.8563 15.3 18.6748 20.4371 18.6748 26.7641ZM18.6748 26.7641L19.3748 26.7642L18.6748 26.7641Z" fill="#373737" stroke="white" stroke-width="1.4" stroke-linecap="round" stroke-linejoin="round"/>
</svg>
