<svg width="60" height="60" viewBox="0 0 60 60" fill="none" xmlns="http://www.w3.org/2000/svg">
<circle opacity="0.99" cx="30" cy="30" r="30" fill="white"/>
<path d="M27.0955 17.6996C26.9578 17.3383 26.5534 17.1571 26.1921 17.2948C25.8309 17.4325 25.6496 17.8369 25.7873 18.1982L27.0955 17.6996ZM30.7475 21.1595L30.5272 21.8239L30.5272 21.8239L30.7475 21.1595ZM25.7873 18.1982C26.4721 19.9948 27.1139 20.8665 28.0397 21.2603C28.4621 21.4399 28.9044 21.4986 29.2794 21.5535C29.6732 21.6111 30.067 21.6713 30.5272 21.8239L30.9679 20.4951C30.3817 20.3007 29.882 20.2267 29.4822 20.1682C29.0636 20.107 28.8122 20.0675 28.5876 19.9719C28.2196 19.8154 27.7547 19.4289 27.0955 17.6996L25.7873 18.1982ZM30.5272 21.8239C31.7011 22.2133 32.2883 22.7545 32.6443 23.4993C33.0315 24.3092 33.1797 25.423 33.2839 27.0564L34.6811 26.9672C34.5783 25.3576 34.427 23.9824 33.9074 22.8955C33.3567 21.7434 32.4299 20.98 30.9679 20.4951L30.5272 21.8239Z" fill="#373737"/>
<path d="M45.7104 36.6821L41.1027 25.2171C40.9138 24.7563 40.5529 24.3647 40.0615 24.155L33.8075 21.4868C32.8203 21.0656 31.6795 21.524 31.2583 22.5113L28.59 28.7653C28.3785 29.2611 28.3889 29.7936 28.5778 30.2544L33.1881 41.7259C33.3725 42.1847 33.7334 42.5763 34.2248 42.786C34.7162 42.9956 35.2532 42.9871 35.712 42.8027L44.6343 39.217C45.095 39.0281 45.4866 38.6671 45.6963 38.1757C45.9078 37.6799 45.8974 37.1474 45.7104 36.6821Z" fill="#373737"/>
<rect x="32.5661" y="25.8987" width="2.85" height="2.85" rx="1.425" transform="rotate(-21.8947 32.5661 25.8987)" fill="white" stroke="white" stroke-width="0.6"/>
<mask id="path-5-inside-1_338_9704" fill="white">
<path d="M32 33.1668C32 32.4897 31.759 31.9039 31.2787 31.4088C30.7973 30.9138 30.2274 30.6665 29.5688 30.6665H26.0603C26.094 30.545 26.1278 30.4408 26.1615 30.354C26.1949 30.2672 26.2419 30.1716 26.3008 30.0675C26.3597 29.9633 26.402 29.8851 26.4273 29.8331C26.5792 29.5381 26.6956 29.2949 26.7759 29.1041C26.856 28.9129 26.9358 28.6526 27.0163 28.3227C27.0967 27.993 27.1366 27.663 27.1366 27.3332C27.1366 27.1249 27.1342 26.9555 27.1302 26.8254C27.1262 26.6952 27.1047 26.4998 27.067 26.2394C27.0288 25.9791 26.978 25.762 26.9149 25.5885C26.8514 25.4149 26.75 25.2194 26.6109 25.0026C26.4715 24.7853 26.3027 24.6098 26.1041 24.4752C25.9055 24.3406 25.6523 24.2278 25.3441 24.1367C25.0355 24.0456 24.6874 24 24.2987 24C24.0792 24 23.8894 24.0825 23.7288 24.2475C23.5599 24.421 23.4161 24.638 23.298 24.8983C23.1797 25.1588 23.0974 25.3845 23.0509 25.5755C23.0044 25.7665 22.9516 26.0313 22.8927 26.3698C22.8164 26.7345 22.7597 26.9969 22.7215 27.1575C22.6835 27.3181 22.6094 27.5286 22.4998 27.7889C22.3899 28.0495 22.2591 28.2577 22.1071 28.414C21.8285 28.7004 21.4021 29.2213 20.8277 29.9764C20.4138 30.5319 19.9874 31.057 19.5484 31.5518C19.1092 32.0468 18.7883 32.3028 18.5857 32.3202C18.3748 32.3375 18.1932 32.4265 18.0411 32.5871C17.8891 32.7477 17.8131 32.9366 17.8131 33.1535V41.4998C17.8131 41.7255 17.8933 41.9186 18.0537 42.0791C18.2141 42.2399 18.4041 42.3245 18.6237 42.3332C18.9192 42.3419 19.5863 42.5327 20.6251 42.9063C21.2752 43.1316 21.7839 43.3033 22.1512 43.4204C22.5185 43.5374 23.0318 43.6633 23.69 43.7981C24.3488 43.9326 24.9567 44 25.5138 44H27.1479C28.2712 43.9827 29.1026 43.644 29.6433 42.9845C30.2929 42.1897 30.6858 40.429 30.9479 39.4037C31.4594 37.5154 32 35.2033 32 33.1668Z"/>
<path d="M16.192 32.3334H13.8108C13.5911 32.3334 13.4011 32.4159 13.2407 32.5809C13.0803 32.7458 13 32.9411 13 33.1668V41.5004C13 41.7258 13.0803 41.9212 13.2407 42.0863C13.4013 42.251 13.5913 42.3335 13.8109 42.3335H16.192C16.4116 42.3335 16.6015 42.251 16.762 42.0863C16.9224 41.9212 17.0026 41.7258 17.0026 41.5004V33.1668C17.0026 32.9411 16.9224 32.7458 16.762 32.5809C16.6015 32.4159 16.4116 32.3334 16.192 32.3334Z"/>
</mask>
<path d="M32 33.1668C32 32.4897 31.759 31.9039 31.2787 31.4088C30.7973 30.9138 30.2274 30.6665 29.5688 30.6665H26.0603C26.094 30.545 26.1278 30.4408 26.1615 30.354C26.1949 30.2672 26.2419 30.1716 26.3008 30.0675C26.3597 29.9633 26.402 29.8851 26.4273 29.8331C26.5792 29.5381 26.6956 29.2949 26.7759 29.1041C26.856 28.9129 26.9358 28.6526 27.0163 28.3227C27.0967 27.993 27.1366 27.663 27.1366 27.3332C27.1366 27.1249 27.1342 26.9555 27.1302 26.8254C27.1262 26.6952 27.1047 26.4998 27.067 26.2394C27.0288 25.9791 26.978 25.762 26.9149 25.5885C26.8514 25.4149 26.75 25.2194 26.6109 25.0026C26.4715 24.7853 26.3027 24.6098 26.1041 24.4752C25.9055 24.3406 25.6523 24.2278 25.3441 24.1367C25.0355 24.0456 24.6874 24 24.2987 24C24.0792 24 23.8894 24.0825 23.7288 24.2475C23.5599 24.421 23.4161 24.638 23.298 24.8983C23.1797 25.1588 23.0974 25.3845 23.0509 25.5755C23.0044 25.7665 22.9516 26.0313 22.8927 26.3698C22.8164 26.7345 22.7597 26.9969 22.7215 27.1575C22.6835 27.3181 22.6094 27.5286 22.4998 27.7889C22.3899 28.0495 22.2591 28.2577 22.1071 28.414C21.8285 28.7004 21.4021 29.2213 20.8277 29.9764C20.4138 30.5319 19.9874 31.057 19.5484 31.5518C19.1092 32.0468 18.7883 32.3028 18.5857 32.3202C18.3748 32.3375 18.1932 32.4265 18.0411 32.5871C17.8891 32.7477 17.8131 32.9366 17.8131 33.1535V41.4998C17.8131 41.7255 17.8933 41.9186 18.0537 42.0791C18.2141 42.2399 18.4041 42.3245 18.6237 42.3332C18.9192 42.3419 19.5863 42.5327 20.6251 42.9063C21.2752 43.1316 21.7839 43.3033 22.1512 43.4204C22.5185 43.5374 23.0318 43.6633 23.69 43.7981C24.3488 43.9326 24.9567 44 25.5138 44H27.1479C28.2712 43.9827 29.1026 43.644 29.6433 42.9845C30.2929 42.1897 30.6858 40.429 30.9479 39.4037C31.4594 37.5154 32 35.2033 32 33.1668Z" fill="#373737"/>
<path d="M16.192 32.3334H13.8108C13.5911 32.3334 13.4011 32.4159 13.2407 32.5809C13.0803 32.7458 13 32.9411 13 33.1668V41.5004C13 41.7258 13.0803 41.9212 13.2407 42.0863C13.4013 42.251 13.5913 42.3335 13.8109 42.3335H16.192C16.4116 42.3335 16.6015 42.251 16.762 42.0863C16.9224 41.9212 17.0026 41.7258 17.0026 41.5004V33.1668C17.0026 32.9411 16.9224 32.7458 16.762 32.5809C16.6015 32.4159 16.4116 32.3334 16.192 32.3334Z" fill="#373737"/>
<path d="M32 33.1668C32 32.4897 31.759 31.9039 31.2787 31.4088C30.7973 30.9138 30.2274 30.6665 29.5688 30.6665H26.0603C26.094 30.545 26.1278 30.4408 26.1615 30.354C26.1949 30.2672 26.2419 30.1716 26.3008 30.0675C26.3597 29.9633 26.402 29.8851 26.4273 29.8331C26.5792 29.5381 26.6956 29.2949 26.7759 29.1041C26.856 28.9129 26.9358 28.6526 27.0163 28.3227C27.0967 27.993 27.1366 27.663 27.1366 27.3332C27.1366 27.1249 27.1342 26.9555 27.1302 26.8254C27.1262 26.6952 27.1047 26.4998 27.067 26.2394C27.0288 25.9791 26.978 25.762 26.9149 25.5885C26.8514 25.4149 26.75 25.2194 26.6109 25.0026C26.4715 24.7853 26.3027 24.6098 26.1041 24.4752C25.9055 24.3406 25.6523 24.2278 25.3441 24.1367C25.0355 24.0456 24.6874 24 24.2987 24C24.0792 24 23.8894 24.0825 23.7288 24.2475C23.5599 24.421 23.4161 24.638 23.298 24.8983C23.1797 25.1588 23.0974 25.3845 23.0509 25.5755C23.0044 25.7665 22.9516 26.0313 22.8927 26.3698C22.8164 26.7345 22.7597 26.9969 22.7215 27.1575C22.6835 27.3181 22.6094 27.5286 22.4998 27.7889C22.3899 28.0495 22.2591 28.2577 22.1071 28.414C21.8285 28.7004 21.4021 29.2213 20.8277 29.9764C20.4138 30.5319 19.9874 31.057 19.5484 31.5518C19.1092 32.0468 18.7883 32.3028 18.5857 32.3202C18.3748 32.3375 18.1932 32.4265 18.0411 32.5871C17.8891 32.7477 17.8131 32.9366 17.8131 33.1535V41.4998C17.8131 41.7255 17.8933 41.9186 18.0537 42.0791C18.2141 42.2399 18.4041 42.3245 18.6237 42.3332C18.9192 42.3419 19.5863 42.5327 20.6251 42.9063C21.2752 43.1316 21.7839 43.3033 22.1512 43.4204C22.5185 43.5374 23.0318 43.6633 23.69 43.7981C24.3488 43.9326 24.9567 44 25.5138 44H27.1479C28.2712 43.9827 29.1026 43.644 29.6433 42.9845C30.2929 42.1897 30.6858 40.429 30.9479 39.4037C31.4594 37.5154 32 35.2033 32 33.1668Z" stroke="white" stroke-width="0.6" mask="url(#path-5-inside-1_338_9704)"/>
<path d="M16.192 32.3334H13.8108C13.5911 32.3334 13.4011 32.4159 13.2407 32.5809C13.0803 32.7458 13 32.9411 13 33.1668V41.5004C13 41.7258 13.0803 41.9212 13.2407 42.0863C13.4013 42.251 13.5913 42.3335 13.8109 42.3335H16.192C16.4116 42.3335 16.6015 42.251 16.762 42.0863C16.9224 41.9212 17.0026 41.7258 17.0026 41.5004V33.1668C17.0026 32.9411 16.9224 32.7458 16.762 32.5809C16.6015 32.4159 16.4116 32.3334 16.192 32.3334Z" stroke="white" stroke-width="0.6" mask="url(#path-5-inside-1_338_9704)"/>
</svg>
