<svg width="60" height="60" viewBox="0 0 60 60" fill="none" xmlns="http://www.w3.org/2000/svg">
<circle opacity="0.99" cx="30" cy="30" r="30" fill="white"/>
<path d="M20.4067 42.9983C19.3022 42.9983 18.4067 42.1029 18.4067 40.9983L18.4067 23.333C18.4067 22.2284 19.3022 21.333 20.4067 21.333L33.4474 21.333C34.0783 21.333 34.6723 21.6307 35.0498 22.1362L37.6482 25.6151C37.9063 25.9608 38.0458 26.3806 38.0458 26.8119L38.0458 40.9983C38.0458 42.1029 37.1504 42.9983 36.0458 42.9983L20.4067 42.9983Z" fill="#373737"/>
<path d="M22.771 27.8328C22.771 27.2345 23.2638 26.7495 23.8621 26.7495C24.4603 26.7495 24.9531 27.2345 24.9531 27.8328C24.9531 28.431 24.4603 28.916 23.8621 28.916C23.2638 28.916 22.771 28.431 22.771 27.8328Z" fill="white"/>
<path d="M26.0442 27.7495C26.0442 27.1972 26.4919 26.7495 27.0442 26.7495H32.6816C33.2339 26.7495 33.6816 27.1972 33.6816 27.7495V27.916C33.6816 28.4683 33.2339 28.916 32.6816 28.916H27.0442C26.4919 28.916 26.0442 28.4683 26.0442 27.916V27.7495Z" fill="white"/>
<ellipse cx="35.3182" cy="22.958" rx="6.00082" ry="5.95796" fill="white"/>
<path d="M35.4133 27.5916L31.646 23.4885L33.0774 22.1429L35.5171 24.7898L42.207 18.5006L43.5346 19.9569L35.4133 27.5916Z" fill="#373737"/>
<path d="M22.771 32.1658C22.771 31.5675 23.2638 31.0825 23.8621 31.0825C24.4603 31.0825 24.9531 31.5675 24.9531 32.1658C24.9531 32.7641 24.4603 33.2491 23.8621 33.2491C23.2638 33.2491 22.771 32.7641 22.771 32.1658Z" fill="white"/>
<path d="M26.0442 32.0825C26.0442 31.5302 26.4919 31.0825 27.0442 31.0825H32.6816C33.2339 31.0825 33.6816 31.5302 33.6816 32.0825V32.2491C33.6816 32.8013 33.2339 33.2491 32.6816 33.2491H27.0442C26.4919 33.2491 26.0442 32.8013 26.0442 32.2491V32.0825Z" fill="white"/>
<path d="M22.771 36.4988C22.771 35.9005 23.2638 35.4155 23.8621 35.4155C24.4603 35.4155 24.9531 35.9005 24.9531 36.4988C24.9531 37.0971 24.4603 37.5821 23.8621 37.5821C23.2638 37.5821 22.771 37.0971 22.771 36.4988Z" fill="white"/>
<path d="M26.0442 36.4155C26.0442 35.8632 26.4919 35.4155 27.0442 35.4155H32.6816C33.2339 35.4155 33.6816 35.8632 33.6816 36.4155V36.5821C33.6816 37.1343 33.2339 37.5821 32.6816 37.5821H27.0442C26.4919 37.5821 26.0442 37.1343 26.0442 36.5821V36.4155Z" fill="white"/>
</svg>
