<svg width="60" height="60" viewBox="0 0 60 60" fill="none" xmlns="http://www.w3.org/2000/svg">
<circle opacity="0.99" cx="30" cy="30" r="30" fill="white"/>
<path d="M18.0791 40.4688V42.1563C18.0791 42.6224 18.451 43 18.9101 43H30.5431C31.0022 43 31.3741 42.6224 31.3741 42.1563V24.0817C31.6109 23.9762 31.8373 23.8523 32.0487 23.7062L39.4258 26.218C39.861 26.3661 40.3321 26.1278 40.478 25.6864L41.0062 24.0864C41.1521 23.6445 40.9174 23.1662 40.4827 23.0181L33.8144 20.7479C33.8362 20.5728 33.8669 20.3998 33.8669 20.2189C33.8669 17.8892 32.0066 16.0002 29.7122 16.0002C28.1703 16.0002 26.8403 16.863 26.1231 18.1291L19.9986 16.044C19.5634 15.8958 19.0923 16.1342 18.9464 16.5756L18.4182 18.1755C18.2723 18.6174 18.507 19.0957 18.9417 19.2439L25.7969 21.5779C26.175 22.6985 26.9893 23.6103 28.0498 24.0812V39.625H18.9101C18.451 39.625 18.0791 40.0026 18.0791 40.4688ZM13.0935 32.0313C13.0935 34.3611 16.0698 36.2501 19.741 36.2501C23.4122 36.2501 26.3885 34.3611 26.3885 32.0313H26.3874C26.3874 31.205 26.4955 31.649 21.9705 22.4596C21.0523 20.5949 18.4276 20.5986 17.511 22.4596C13.025 31.571 13.0945 31.1781 13.0945 32.0313H13.0935ZM16.0018 31.1876L19.741 23.5939L23.4802 31.1876H16.0018ZM33.037 38.7813H33.0359C33.0359 41.1111 36.0123 43 39.6834 43C43.3546 43 46.3309 41.1111 46.3309 38.7813H46.3299C46.3299 37.9549 46.4379 38.399 41.9129 29.2095C40.9948 27.3449 38.37 27.3486 37.4534 29.2095C32.9674 38.3209 33.037 37.9281 33.037 38.7813ZM35.9442 37.9375L39.6834 30.3439L43.4226 37.9375H35.9442Z" fill="#373737"/>
</svg>
