<svg width="68" height="48" viewBox="0 0 68 48" fill="none" xmlns="http://www.w3.org/2000/svg">
<path d="M47.5736 3.01818C46.9759 1.25508 45.3025 0 43.3302 0H10.459C8.48675 0 6.84319 1.25508 6.21565 3.01818L0 20.918V44.8244C0 46.4679 1.34473 47.8127 2.98829 47.8127H5.97658C7.62014 47.8127 8.96488 46.4679 8.96488 44.8244V41.8361H44.8244V44.8244C44.8244 46.4679 46.1691 47.8127 47.8127 47.8127H50.801C52.4445 47.8127 53.7893 46.4679 53.7893 44.8244V20.918L47.5736 3.01818ZM10.459 32.8712C7.97874 32.8712 5.97658 30.8691 5.97658 28.3888C5.97658 25.9085 7.97874 23.9063 10.459 23.9063C12.9393 23.9063 14.9415 25.9085 14.9415 28.3888C14.9415 30.8691 12.9393 32.8712 10.459 32.8712ZM43.3302 32.8712C40.8499 32.8712 38.8478 30.8691 38.8478 28.3888C38.8478 25.9085 40.8499 23.9063 43.3302 23.9063C45.8105 23.9063 47.8127 25.9085 47.8127 28.3888C47.8127 30.8691 45.8105 32.8712 43.3302 32.8712ZM5.97658 17.9298L10.459 4.48244H43.3302L47.8127 17.9298H5.97658Z" fill="#233D7A"/>
<path d="M53.6843 8.62916L53.6844 8.62913C53.8858 8.55071 54.114 8.55069 54.3157 8.62916C54.3157 8.62917 54.3157 8.62917 54.3157 8.62918L67.0194 13.5739C67.3257 13.6932 67.5 13.9605 67.5 14.2304V20.2414C67.5 28.2958 62.3063 35.565 54.3112 38.6243C54.2104 38.6629 54.1023 38.6822 53.9938 38.6814C53.8893 38.6807 53.7858 38.6614 53.6888 38.6243C45.6936 35.5649 40.5 28.2958 40.5 20.2414V14.2304C40.5 13.9605 40.6743 13.6932 40.9806 13.5739C40.9806 13.5739 40.9806 13.5739 40.9806 13.5739L53.6843 8.62916Z" fill="#233D7A" stroke="white"/>
<path d="M58.0541 18.9049L52.5961 24.397L49.9451 21.7295C49.4493 21.2305 48.6453 21.2305 48.1493 21.7295C47.6534 22.2285 47.6534 23.0375 48.1493 23.5365L51.6982 27.1075C52.194 27.6065 52.998 27.6066 53.494 27.1075L59.8498 20.7119C60.3458 20.213 60.3458 19.4039 59.8499 18.9049C59.354 18.4059 58.55 18.4059 58.0541 18.9049Z" fill="white"/>
</svg>
